<?xml version="1.0" standalone="no"?>
<!DOCTYPE svg PUBLIC "-//W3C//DTD SVG 20010904//EN"
 "http://www.w3.org/TR/2001/REC-SVG-20010904/DTD/svg10.dtd">
<svg version="1.0" xmlns="http://www.w3.org/2000/svg"
 width="87.000000pt" height="87.000000pt" viewBox="0 0 87.000000 87.000000"
 preserveAspectRatio="xMidYMid meet">
<metadata>
Created by potrace 1.14, written by Peter Selinger 2001-2017
</metadata>
<g transform="translate(0.000000,87.000000) scale(0.100000,-0.100000)"
fill="#000000" stroke="none">
<path d="M345 643 c-43 -104 -107 -258 -142 -343 -35 -85 -70 -170 -79 -187
-8 -18 -21 -51 -29 -73 l-14 -40 149 0 150 0 0 40 0 40 40 0 40 0 0 -40 0 -40
160 0 160 0 -15 33 c-7 17 -36 86 -64 152 -27 66 -81 194 -118 285 -38 91 -87
209 -108 263 -21 53 -41 97 -45 97 -3 0 -42 -84 -85 -187z m95 -143 c0 -53 -2
-60 -20 -60 -18 0 -20 7 -20 60 0 53 2 60 20 60 18 0 20 -7 20 -60z m10 -245
l0 -85 -30 0 -30 0 0 85 0 85 30 0 30 0 0 -85z"/>
</g>
</svg>
