<?xml version="1.0" standalone="no"?>
<!DOCTYPE svg PUBLIC "-//W3C//DTD SVG 20010904//EN"
 "http://www.w3.org/TR/2001/REC-SVG-20010904/DTD/svg10.dtd">
<svg version="1.0" xmlns="http://www.w3.org/2000/svg"
 width="520.000000pt" height="520.000000pt" viewBox="0 0 520.000000 520.000000"
 preserveAspectRatio="xMidYMid meet">
<metadata>
Created by potrace 1.14, written by Peter Selinger 2001-2017
</metadata>
<g transform="translate(0.000000,520.000000) scale(0.100000,-0.100000)"
fill="#000000" stroke="none">
<path d="M2574 4943 c4 -7 2 -13 -4 -13 -6 0 -9 -4 -6 -9 4 -5 3 -11 -1 -13
-5 -1 -37 -61 -73 -133 -36 -71 -68 -132 -71 -135 -3 -3 -16 -27 -28 -55 -12
-27 -29 -61 -37 -75 -8 -14 -29 -54 -47 -90 -17 -36 -35 -66 -39 -68 -4 -2 -8
-12 -8 -23 0 -10 -5 -19 -11 -19 -5 0 -8 -4 -5 -9 4 -5 3 -11 -1 -13 -5 -1
-30 -48 -58 -103 -27 -55 -53 -101 -57 -103 -5 -2 -8 -9 -8 -15 0 -6 -6 -18
-13 -26 -7 -9 -22 -36 -32 -61 -10 -25 -27 -57 -38 -72 -10 -16 -16 -28 -12
-28 3 0 -5 -19 -17 -41 -13 -23 -39 -72 -58 -108 -19 -36 -39 -73 -45 -81 -5
-8 -10 -21 -11 -28 -1 -7 -7 -19 -13 -26 -6 -7 -27 -46 -48 -87 -20 -41 -41
-77 -46 -80 -5 -3 -8 -9 -7 -13 2 -10 -53 -120 -62 -124 -4 -2 -8 -12 -8 -23
0 -10 -5 -19 -12 -19 -6 0 -9 -3 -5 -6 6 -6 -46 -108 -69 -134 -7 -8 -12 -17
-12 -20 1 -11 -86 -185 -98 -197 -7 -7 -16 -23 -20 -36 -3 -12 -15 -34 -26
-49 -11 -16 -16 -28 -12 -28 3 0 1 -7 -6 -15 -7 -8 -9 -15 -5 -15 5 0 0 -9 -9
-19 -16 -17 -73 -130 -77 -149 0 -4 -6 -13 -12 -20 -10 -12 -124 -232 -200
-387 -17 -33 -33 -62 -36 -65 -3 -3 -17 -30 -31 -60 -14 -30 -35 -73 -47 -95
-13 -22 -40 -77 -62 -122 -22 -44 -45 -84 -50 -88 -6 -3 -11 -15 -11 -26 0
-10 -4 -19 -9 -19 -5 0 -11 -8 -15 -17 -3 -10 -9 -25 -14 -33 -5 -8 -35 -67
-66 -130 -32 -63 -85 -169 -120 -235 -34 -66 -87 -167 -116 -225 -30 -58 -58
-106 -62 -108 -4 -2 -8 -8 -8 -13 0 -15 -78 -174 -106 -214 -13 -20 -24 -39
-24 -43 0 -10 -61 -129 -84 -165 -10 -15 -15 -27 -11 -27 4 0 -5 -17 -21 -37
-15 -20 -21 -33 -13 -28 9 5 7 1 -3 -12 -10 -11 -18 -24 -18 -29 0 -6 -5 -15
-12 -22 -6 -6 -13 -17 -14 -24 -1 -7 -15 -35 -31 -63 -16 -27 -46 -86 -67
-130 -21 -44 -49 -95 -63 -113 l-24 -32 1130 0 1131 0 2 228 3 227 258 2 257
3 0 -230 0 -230 1180 0 c849 0 1180 3 1180 11 0 6 -9 24 -20 39 -12 16 -32 53
-46 82 -14 29 -42 82 -61 118 -34 63 -190 364 -220 425 -8 17 -19 39 -25 50
-6 11 -45 85 -87 165 -41 80 -97 186 -123 235 -26 50 -75 144 -108 209 -33 66
-65 125 -71 133 -6 7 -8 13 -3 13 5 0 5 4 -1 8 -5 4 -30 48 -55 97 -25 50 -48
92 -51 95 -4 3 -10 16 -14 30 -4 14 -11 27 -15 30 -3 3 -33 58 -66 122 -102
202 -149 293 -154 298 -3 3 -36 67 -75 142 -90 175 -127 247 -145 278 -8 14
-15 30 -16 35 -3 12 -127 245 -156 293 -11 17 -17 32 -13 32 3 0 -3 14 -15 30
-12 17 -18 30 -14 30 3 0 1 7 -6 15 -13 16 -57 99 -136 255 -26 52 -52 101
-58 109 -5 7 -11 20 -12 28 -2 8 -9 22 -17 31 -16 20 -47 85 -47 101 0 6 -4
11 -10 11 -5 0 -10 5 -10 10 0 6 -12 29 -26 52 -14 23 -27 47 -28 54 -1 6 -7
18 -12 25 -6 8 -16 29 -24 47 -7 17 -17 32 -22 32 -5 0 -6 5 -2 11 3 6 3 14
-2 18 -5 3 -26 40 -47 81 -21 41 -49 94 -62 118 -13 23 -22 42 -19 42 2 0 -10
23 -26 50 -17 28 -30 55 -30 59 0 5 -7 14 -15 21 -8 7 -13 15 -11 19 2 3 -5
20 -15 36 -46 76 -218 415 -211 415 4 0 0 6 -9 13 -9 7 -16 15 -17 20 -2 12
-66 141 -73 147 -3 3 -18 30 -33 60 -15 30 -32 60 -38 65 -8 7 -9 6 -4 -2z
m61 -1622 c3 -5 6 -156 8 -335 2 -264 -1 -327 -11 -331 -8 -3 -61 -5 -118 -5
l-104 0 0 340 0 340 109 0 c61 0 112 -4 116 -9z m85 -1796 l0 -480 -27 -8
c-16 -4 -100 -6 -188 -4 l-160 2 -3 488 -2 487 190 -2 190 -3 0 -480z"/>
</g>
</svg>
